Coordinates
version=1
nRows=6
nColumns=34
inDegrees=yes

Units are S.I. units (second, meters, Newtons, ...)
If the header above contains a line with 'inDegrees', this indicates whether rotational values are in degrees (yes) or radians (no).

endheader
time	pelvis_tilt	pelvis_list	pelvis_rotation	pelvis_tx	pelvis_ty	pelvis_tz	hip_flexion_r	hip_adduction_r	hip_rotation_r	knee_angle_r	ankle_angle_r	subtalar_angle_r	mtp_angle_r	hip_flexion_l	hip_adduction_l	hip_rotation_l	knee_angle_l	ankle_angle_l	subtalar_angle_l	mtp_angle_l	lumbar_extension	lumbar_bending	lumbar_rotation	arm_flex_r	arm_add_r	arm_rot_r	elbow_flex_r	pro_sup_r	arm_flex_l	arm_add_l	arm_rot_l	elbow_flex_l	pro_sup_l
      2.45000000	      1.26108099	     -0.69015830	     -0.77499508	      0.57006429	      0.88628222	     -0.11775785	     27.11877517	     -0.66435658	     -3.34083347	     34.56590890	    -15.13890077	    -16.46920237	      0.00000000	     24.96544804	     -2.01153923	     -8.76995504	     32.74409699	    -11.55462976	    -14.90050791	      0.00000000	    -33.30115411	      5.20646097	     -0.69546977	      1.94080822	    -19.63600037	     74.68491015	     25.06579733	     30.09404824	      1.42971739	    -20.70770629	     71.38749791	     25.95016165	     44.17391487
      2.46666670	      2.41131114	     -0.38230579	     -0.67998419	      0.58013632	      0.84435681	     -0.11781959	     32.02778040	     -0.57968592	     -1.93375093	     48.70429084	     -5.18197802	    -23.29815583	      0.00000000	     29.94797756	     -2.13764442	     -8.17854978	     47.33015604	     -1.78965043	    -20.63677182	      0.00000000	    -36.07229486	      4.79940258	     -0.73905719	      2.54938373	    -19.54214530	     74.15756146	     25.22069996	     30.97822315	      2.22686410	    -20.65351832	     71.20395550	     25.30562543	     43.81875652
      2.48333330	      2.69299843	      0.04022615	     -0.42659340	      0.59481998	      0.80378466	     -0.11904041	     36.82828413	     -0.40753289	     -1.01591435	     61.64729417	      6.10467629	    -27.23651976	      0.00000000	     35.30084951	     -1.31656270	     -7.37466663	     60.85651226	      7.78011142	    -25.57043906	      0.00000000	    -37.46931439	      4.31864612	     -1.02661216	      3.00711442	    -19.25427861	     73.37337399	     24.80011001	     33.09283621	      2.77081268	    -20.41945349	     71.37440110	     24.03349969	     42.95309448
      2.50000000	      2.08631228	      0.19212445	     -0.73510440	      0.60886314	      0.77048969	     -0.12172011	     41.27861744	      0.39827464	     -0.03662773	     71.41720242	     15.35683613	    -29.57419251	      0.00000000	     40.25261050	     -0.29721075	     -6.84868092	     71.42226504	     14.77553428	    -30.12129040	      0.00000000	    -38.17483461	      3.68785193	     -0.44134570	      3.98463925	    -19.38378737	     73.61874901	     24.78832052	     33.87065145	      3.56903260	    -20.02970480	     71.30812500	     23.20923884	     42.57184881
      2.51666670	      0.58665181	      0.25169990	     -0.76567642	      0.60955555	      0.73529903	     -0.12274044	     47.17518077	      0.78488514	      0.18021364	     80.52277879	     22.88983545	    -29.54820163	      0.00000000	     46.15458921	      1.31090502	     -5.87227468	     80.34386080	     19.92401560	    -34.38638215	      0.00000000	    -39.05002447	      3.22364154	     -0.26939597	      6.18880667	    -19.55592735	     73.95252924	     24.80311381	     34.65645117	      4.87208771	    -19.53030067	     71.11863592	     22.15703111	     42.21522534
      2.53333330	     -0.97726259	      0.36077380	     -1.12829610	      0.61174683	      0.71531170	     -0.12176771	     52.36228091	      1.36101605	      0.47843223	     86.77463555	     28.08377053	    -28.39919738	      0.00000000	     51.13081299	      2.88919565	     -4.92651760	     86.56625534	     24.02844458	    -35.00000000	      0.00000000	    -41.11122984	      2.83955394	      0.11297319	      8.69120091	    -18.83745686	     74.86591325	     23.77408317	     35.59934909	      7.00378422	    -18.72454271	     71.06791146	     21.06931499	     41.93577802
